<svg width="108" height="100" xmlns="http://www.w3.org/2000/svg" bbheight="100.31234741210938" bbwidth="108">

 <metadata id="metadata7">image/svg+xmlRecycle symbol, simple2008-Jan-18M. SzingerrecycleA simple recycle symbol; includes model with path elements for further tailoring.</metadata>
 <g>
  <title>Layer 1</title>
  <g transform="translate(-118 -452.05)" id="layer1" label="Layer 1">
   <path fill="#00bf00" stroke-width="6" stroke-miterlimit="4" id="path3494" d="M154.00011,452.04984L136.00011,483.23737L158.00011,495.92474L172.00011,471.6748L176.87511,480.29977L171.06261,483.67477L193.43761,483.42477L200.87511,470.8624L204.81261,464.17484L198.93761,467.5498L190.00011,452.04984L154.00011,452.04984zM208.00011,483.23737L185.81261,496.04974L199.31261,519.79968L190.12511,519.8623L190.12511,513.3623L186.50011,519.8623L179.12511,532.8623L179.12511,532.92468L186.31261,545.61218L190.12511,552.36218L190.12511,545.61218L208.00011,545.61218L226.00011,514.42468L208.00011,483.23737zM121.06261,495.48734L127.0001,498.92471L118.00011,514.42468L136.00011,545.61218L172.00011,545.61218L172.00011,519.9873L144.00011,520.17468L148.93761,511.61227L154.81261,514.9873L143.43761,495.73734L121.06261,495.48734z"/>
  </g>
 </g>
</svg>